<svg xmlns="http://www.w3.org/2000/svg" xmlns:xlink="http://www.w3.org/1999/xlink" viewBox="0 0 209.73 209"><defs><style>.cls-1{isolation:isolate;}.cls-2,.cls-4{fill:none;stroke-miterlimit:10;stroke-width:2px;}.cls-2{stroke:#c1c7d0;}.cls-3{fill:url(#linear-gradient);}.cls-4{stroke:#0065ff;}.cls-5{fill:#de350b;}.cls-6{fill:#0065ff;}.cls-7{fill:#dfe1e5;mix-blend-mode:multiply;}.cls-8{fill:#ff5630;}.cls-9{fill:#b3bac5;}</style><linearGradient id="linear-gradient" y1="125.87" x2="209.73" y2="125.87" gradientTransform="translate(17.62 -12.8) rotate(7.62)" gradientUnits="userSpaceOnUse"><stop offset="0" stop-color="#c1c7d0"/><stop offset="1" stop-color="#ebecf0"/></linearGradient></defs><title>DFTC</title><g class="cls-1"><g id="Layer_2" data-name="Layer 2"><g id="Values"><path class="cls-2" d="M68.36,16.47h84.18a0,0,0,0,1,0,0v93.65a0,0,0,0,1,0,0H58.9a0,0,0,0,1,0,0V25.94A9.46,9.46,0,0,1,68.36,16.47Z" transform="translate(75.72 -56.22) rotate(45)"/><rect class="cls-3" x="7.51" y="53.83" width="194.72" height="144.08" rx="9.59" ry="9.59" transform="matrix(0.99, -0.13, 0.13, 0.99, -15.77, 15.02)"/><rect class="cls-4" x="38.74" y="34.43" width="132.25" height="182.89" rx="5.91" ry="5.91" transform="translate(215.72 5.24) rotate(82.38)"/><path id="_Compound_Path_" data-name="&lt;Compound Path&gt;" class="cls-5" d="M162.37,118.57a56.65,56.65,0,0,0-17.42-34l-7.23,9.47a45.29,45.29,0,0,1-54.52,71.35L76,174.87a56.45,56.45,0,0,0,29.67,8.39,58.44,58.44,0,0,0,7.69-.51,57.1,57.1,0,0,0,49-64.18ZM99.76,81.26a45.85,45.85,0,0,1,6.09-.41,44.8,44.8,0,0,1,22.47,6l7.23-9.47a57.13,57.13,0,0,0-69,90.29l7.24-9.47a45.29,45.29,0,0,1,26-77Z"/><path class="cls-6" d="M40.52,126.49l7.54-1,.69-8.47,5.54-.74-.69,8.47,6.91-.92.69-8.47,5.49-.73L66,123.08l6.7-.9.68,5.06-7.76,1-.59,7.6,6.7-.9.67,5-7.81,1-.66,8.73-5.49.73.66-8.73-6.91.92-.66,8.74-5.54.74.66-8.74-6.44.86-.67-5,7.54-1,.6-7.6-6.49.87Zm12.11,11.05,6.91-.92.59-7.6-6.91.92Z"/><path id="_Compound_Path_2" data-name="&lt;Compound Path&gt;" class="cls-6" d="M100.25,134.18a7.24,7.24,0,0,1-5.68,4.14c-4.59.61-8.52-2.67-9.24-8.05-.92-6.91,3.21-12.51,8.81-13.26,2-.27,4.45.37,5.52,2.32l.11-2.38,5-.67-1,13.29a4.79,4.79,0,0,0,0,1,1.66,1.66,0,0,0,1.92,1.51c2.59-.35,4.66-4.49,4-9.61-1-7.44-7.38-11.85-15.62-10.75-8.81,1.18-14.6,8.45-13.33,18,1.17,8.76,8,14.62,17.94,13.28a16.14,16.14,0,0,0,9.29-4.41l3,3.25c-2.5,3-7.51,5.3-11.68,5.86C87,149.27,77,142.44,75.43,130.46a20.51,20.51,0,0,1,18-23.56c10.87-1.45,20,4.9,21.32,14.82,1.07,8-3.48,14.16-8.9,15C102.9,137.1,101,135.85,100.25,134.18ZM95.15,121.7c-3.16.42-4.91,3.83-4.44,7.36.37,2.8,1.7,4.71,4.39,4.35,2.9-.39,4.65-3.79,4.19-8C99,122.86,97.47,121.39,95.15,121.7Z"/><path class="cls-7" d="M103.93,108.1l-3.08,4a12,12,0,0,1,8.84,10.32,14.77,14.77,0,0,1,.13,1.72l4.18-5.47A16.88,16.88,0,0,0,103.93,108.1Z"/><path class="cls-7" d="M82.76,135.81l-3.41,4.47a19.28,19.28,0,0,0,12.6,7.28l3.41-4.46A14.39,14.39,0,0,1,82.76,135.81Z"/><path class="cls-7" d="M95.15,121.7c2.32-.31,3.81,1.16,4.15,3.69.46,4.24-1.29,7.64-4.19,8-2.69.36-4-1.56-4.39-4.35a7.82,7.82,0,0,1,.74-4.63L85.7,132c1.24,4.35,4.8,6.9,8.88,6.35a7.24,7.24,0,0,0,5.68-4.14,3.92,3.92,0,0,0,.92,1.3l3-4a1.89,1.89,0,0,1-.42-1,4.79,4.79,0,0,1,0-1l1-13.29-5,.67-.11,2.38a4.51,4.51,0,0,0-2.72-2.09l-4.29,5.61A4.61,4.61,0,0,1,95.15,121.7Z"/><path class="cls-6" d="M138.11,104.41a8.71,8.71,0,1,1,2.31,17.25,8.7,8.7,0,1,1-2.31-17.25Zm1.07,35.3,19.58-37.48,6.12-.82L145.3,138.89Zm.58-23a3.5,3.5,0,0,0,3-4.16,3.52,3.52,0,1,0-7,.93A3.5,3.5,0,0,0,139.76,116.75Zm23.83,2.72a8.71,8.71,0,1,1,2.31,17.25,8.7,8.7,0,1,1-2.31-17.25Zm1.65,12.35a3.5,3.5,0,0,0,3-4.16,3.52,3.52,0,1,0-7,.93A3.5,3.5,0,0,0,165.25,131.82Z"/><path id="_Path_" data-name="&lt;Path&gt;" class="cls-8" d="M145,84.59l-7.23,9.47L83.21,165.41,76,174.87a53.83,53.83,0,0,1-4.89-3.34q-2.37-1.82-4.52-3.83l7.24-9.47,54.52-71.35,7.23-9.47a58.22,58.22,0,0,1,4.89,3.35A56.15,56.15,0,0,1,145,84.59Z"/><polygon class="cls-7" points="114.93 104.4 113.11 106.79 116.2 122.23 121.94 114.72 121.18 103.57 114.93 104.4"/><path class="cls-6" d="M126.52,129.8l-5.12.68-5.17-25.78,8.49-1.14Zm-2.13,3.78a4.27,4.27,0,0,1,4.79,3.66,4.23,4.23,0,0,1-3.66,4.73,4.17,4.17,0,0,1-4.67-3.62A4.22,4.22,0,0,1,124.4,133.58Z"/><circle class="cls-9" cx="105.77" cy="11.45" r="6.54"/></g></g></g></svg>